<svg id="Layer_1" data-name="Layer 1" xmlns="http://www.w3.org/2000/svg" viewBox="0 0 40 40"><defs><style>.cls-1{fill:#00a959;}</style></defs><title>01 ICON</title><path class="cls-1" d="M20,6.17A13.83,13.83,0,1,0,33.83,20,13.85,13.85,0,0,0,20,6.17Zm0,25.66A11.83,11.83,0,1,1,31.83,20,11.85,11.85,0,0,1,20,31.83Z"/><path class="cls-1" d="M20,24.75a.81.81,0,0,0,.81-.81L21,12a1.2,1.2,0,0,0-1-1,1.21,1.21,0,0,0-1,1l.2,11.92A.82.82,0,0,0,20,24.75Z"/><rect class="cls-1" x="18.9" y="26.74" width="2.2" height="2.26" rx="1.09"/></svg>