<svg id="Layer_1" data-name="Layer 1" xmlns="http://www.w3.org/2000/svg" viewBox="0 0 40 40"><defs><style>.cls-1{fill:#00a959;}.cls-2{fill:#fff;}</style></defs><title>01 ICON</title><path class="cls-1" d="M20,7.17A12.83,12.83,0,1,0,32.83,20h0A12.84,12.84,0,0,0,20,7.17Z"/><path class="cls-2" d="M20,24.75h0a.82.82,0,0,1-.82-.81L19,12a1.21,1.21,0,0,1,1-1h0a1.2,1.2,0,0,1,1,1l-.2,11.92A.81.81,0,0,1,20,24.75ZM20,29h0a1.09,1.09,0,0,1-1.09-1.09v-.08A1.09,1.09,0,0,1,20,26.74h0a1.09,1.09,0,0,1,1.09,1.09v.08A1.09,1.09,0,0,1,20,29Z"/></svg>