<svg id="Layer_1" data-name="Layer 1" xmlns="http://www.w3.org/2000/svg" viewBox="0 0 40 40"><defs><style>.cls-1{fill:#ed1c24;}</style></defs><title>01 ICON</title><path class="cls-1" d="M20,33.83A13.83,13.83,0,1,1,33.83,20,13.85,13.85,0,0,1,20,33.83ZM20,8.17A11.83,11.83,0,1,0,31.83,20,11.85,11.85,0,0,0,20,8.17Z"/><path class="cls-1" d="M26.36,25.07,21.3,20l5.06-5.07a.91.91,0,0,0-1.29-1.29L20,18.7l-5.07-5.06a.91.91,0,0,0-1.29,1.29L18.7,20l-5.06,5.07a.91.91,0,0,0,1.29,1.29L20,21.3l5.07,5.06a.91.91,0,0,0,1.29-1.29Z"/></svg>